<svg width="32" height="32" viewBox="0 0 32 32" fill="none" xmlns="http://www.w3.org/2000/svg">
<g id="Icon in input">
<path id="Vector 157" d="M2 28H5.48M31 28H27.52M27.52 28V16.0162C27.52 15.8302 27.4168 15.6596 27.252 15.5733L18.9538 11.2265M27.52 28H18.9538M18.9538 11.2265V28M18.9538 11.2265V3.80869C18.9538 3.43708 18.5628 3.19532 18.2304 3.36139L5.75656 9.59262C5.58707 9.67728 5.48 9.85046 5.48 10.0399V28M18.9538 28H5.48" stroke="#1D9F9B" stroke-width="1.8" stroke-linecap="round"/>
<path id="Vector" d="M8.29289 12.2929C8.10536 12.4804 8 12.7348 8 13C8 13.2652 8.10536 13.5196 8.29289 13.7071C8.48043 13.8946 8.73478 14 9 14H10C10.2652 14 10.5196 13.8946 10.7071 13.7071C10.8946 13.5196 11 13.2652 11 13C11 12.7348 10.8946 12.4804 10.7071 12.2929C10.5196 12.1054 10.2652 12 10 12H9C8.73478 12 8.48043 12.1054 8.29289 12.2929Z" fill="#F1683B"/>
<path id="Vector_2" d="M8.29289 16.2929C8.10536 16.4804 8 16.7348 8 17C8 17.2652 8.10536 17.5196 8.29289 17.7071C8.48043 17.8946 8.73478 18 9 18H10C10.2652 18 10.5196 17.8946 10.7071 17.7071C10.8946 17.5196 11 17.2652 11 17C11 16.7348 10.8946 16.4804 10.7071 16.2929C10.5196 16.1054 10.2652 16 10 16H9C8.73478 16 8.48043 16.1054 8.29289 16.2929Z" fill="#F1683B"/>
<path id="Vector_3" d="M13.2929 12.2929C13.1054 12.4804 13 12.7348 13 13C13 13.2652 13.1054 13.5196 13.2929 13.7071C13.4804 13.8946 13.7348 14 14 14H15C15.2652 14 15.5196 13.8946 15.7071 13.7071C15.8946 13.5196 16 13.2652 16 13C16 12.7348 15.8946 12.4804 15.7071 12.2929C15.5196 12.1054 15.2652 12 15 12H14C13.7348 12 13.4804 12.1054 13.2929 12.2929Z" fill="#F1683B"/>
<path id="Vector_4" d="M21.2929 18.2929C21.1054 18.4804 21 18.7348 21 19C21 19.2652 21.1054 19.5196 21.2929 19.7071C21.4804 19.8946 21.7348 20 22 20H23C23.2652 20 23.5196 19.8946 23.7071 19.7071C23.8946 19.5196 24 19.2652 24 19C24 18.7348 23.8946 18.4804 23.7071 18.2929C23.5196 18.1054 23.2652 18 23 18H22C21.7348 18 21.4804 18.1054 21.2929 18.2929Z" fill="#F1683B"/>
<path id="Vector_5" d="M13.2929 16.2929C13.1054 16.4804 13 16.7348 13 17C13 17.2652 13.1054 17.5196 13.2929 17.7071C13.4804 17.8946 13.7348 18 14 18H15C15.2652 18 15.5196 17.8946 15.7071 17.7071C15.8946 17.5196 16 17.2652 16 17C16 16.7348 15.8946 16.4804 15.7071 16.2929C15.5196 16.1054 15.2652 16 15 16H14C13.7348 16 13.4804 16.1054 13.2929 16.2929Z" fill="#F1683B"/>
<path id="Vector_6" d="M21.2929 22.2929C21.1054 22.4804 21 22.7348 21 23C21 23.2652 21.1054 23.5196 21.2929 23.7071C21.4804 23.8946 21.7348 24 22 24H23C23.2652 24 23.5196 23.8946 23.7071 23.7071C23.8946 23.5196 24 23.2652 24 23C24 22.7348 23.8946 22.4804 23.7071 22.2929C23.5196 22.1054 23.2652 22 23 22H22C21.7348 22 21.4804 22.1054 21.2929 22.2929Z" fill="#F1683B"/>
</g>
</svg>
