<svg width="24" height="24" viewBox="0 0 24 24" fill="none" xmlns="http://www.w3.org/2000/svg">
<g id="Facebook">
<path id="Vector" d="M16.6246 4.49757L15.1992 4.44295L15.1992 4.44288H15.1953C14.2307 4.44288 13.6788 4.70554 13.376 5.1317C13.0791 5.54954 13.0413 6.10071 13.0413 6.6269L16.6246 4.49757ZM16.6246 4.49757V2.36806M16.6246 4.49757V2.36806M10.0596 9.69829L10.0595 9.69829L8.32525 9.69829V11.8586H10.0596C10.4855 11.8586 10.7662 12.2053 10.7662 12.611V21.6738H13.0364L13.0376 12.6098V12.6096C13.038 12.41 13.1175 12.2187 13.2586 12.0777C13.3998 11.9366 13.5911 11.8574 13.7906 11.8574H16.6685V9.69707H13.7881C13.6893 9.69707 13.5914 9.67756 13.5001 9.63965L13.5385 9.54729L13.5001 9.63965C13.4088 9.60174 13.3259 9.54619 13.2561 9.47617C13.1862 9.40615 13.1309 9.32304 13.0932 9.2316C13.0555 9.14016 13.0362 9.04218 13.0364 8.94327V8.94325L13.0413 6.62711L10.0596 9.69829ZM10.0596 9.69829C10.1584 9.69843 10.2561 9.67908 10.3474 9.64138C10.4387 9.60366 10.5217 9.54829 10.5916 9.47846L10.592 9.47803C10.7438 9.32459 10.765 9.12246 10.765 8.94468V6.31191C10.765 4.94176 10.9051 3.9622 11.3844 3.32282C11.8573 2.69193 12.6812 2.36806 14.1213 2.36806H16.6246M10.0596 9.69829L16.6246 2.36806M15.1638 5.99147L15.1638 5.99164H15.1697H17.3531H17.3642L17.3749 5.98924C17.4122 5.98091 17.4512 5.97558 17.4937 5.9703C17.4994 5.9696 17.5051 5.9689 17.511 5.96818C17.5475 5.96371 17.5871 5.95886 17.6257 5.95185C17.7164 5.93533 17.816 5.90453 17.9 5.82285C18.0422 5.68467 18.1347 5.48656 18.0878 5.26957V1.62216C18.0997 1.52641 18.09 1.42916 18.0592 1.33764C18.0277 1.24389 17.975 1.15868 17.9052 1.08866C17.8354 1.01863 17.7504 0.965682 17.6567 0.933947C17.5653 0.902957 17.4681 0.893014 17.3724 0.904821H14.1231C12.0278 0.883939 10.8208 1.52391 10.1455 2.54554C9.47689 3.55719 9.34572 4.92181 9.34572 6.31313V8.23505H7.62139C7.52561 8.22329 7.42839 8.23326 7.33693 8.26424L7.36902 8.35895L7.33693 8.26424C7.24329 8.29596 7.15822 8.34886 7.08833 8.41882C7.01843 8.48879 6.9656 8.57393 6.93392 8.66763C6.90299 8.75915 6.89304 8.85643 6.90478 8.95226V12.6047C6.89304 12.7005 6.90299 12.7978 6.93393 12.8893C6.9656 12.983 7.01843 13.0681 7.08833 13.1381C7.15822 13.2081 7.24329 13.261 7.33693 13.2927C7.42839 13.3237 7.52561 13.3336 7.62139 13.3219H9.34572V22.3788C9.3349 22.4748 9.34567 22.5721 9.37726 22.6635C9.40955 22.7569 9.46273 22.8417 9.53277 22.9114C9.6028 22.9811 9.68783 23.0338 9.78136 23.0656C9.87277 23.0966 9.96995 23.1069 10.0658 23.0955H13.7826C13.9901 23.1177 14.1829 23.0451 14.3084 22.9084C14.4334 22.7722 14.486 22.5779 14.4252 22.3698L14.4276 13.3219H17.3724C17.4682 13.3336 17.5654 13.3237 17.6568 13.2927C17.7505 13.261 17.8356 13.2081 17.9055 13.1381C17.9753 13.0681 18.0282 12.983 18.0599 12.8893C18.0908 12.7978 18.1007 12.7005 18.089 12.6047V8.95226C18.1007 8.85643 18.0908 8.75915 18.0599 8.66763C18.0282 8.57393 17.9753 8.48879 17.9055 8.41882C17.8356 8.34886 17.7505 8.29596 17.6568 8.26424C17.5654 8.23326 17.4682 8.22329 17.3724 8.23505H14.4241L14.4276 6.51014C14.4569 6.31683 14.478 6.18781 14.5034 6.09933C14.5292 6.00968 14.5532 5.98545 14.5715 5.97499C14.5957 5.96107 14.6393 5.95333 14.7439 5.95911C14.7885 5.96158 14.8394 5.96602 14.9001 5.97131C14.9072 5.97193 14.9145 5.97257 14.9219 5.97322C14.9916 5.97928 15.0719 5.98604 15.1638 5.99147Z" fill="#123F6D" stroke="#123F6D" stroke-width="0.2"/>
</g>
</svg>
