<svg width="24" height="24" viewBox="0 0 24 24" fill="none" xmlns="http://www.w3.org/2000/svg">
<g id="Line">
<path id="Vector" d="M18.3877 18.6573L18.2769 18.7417C16.3887 20.179 14.6522 21.3339 12.9669 22.2762C12.5753 22.495 12.1924 22.7063 11.7831 22.8177L11.783 22.8177C11.6546 22.8527 11.54 22.8678 11.4419 22.8678C11.2346 22.8678 11.0627 22.8008 10.9105 22.6609L10.9104 22.6608C10.7034 22.4706 10.6198 22.241 10.6557 21.9627L18.3877 18.6573ZM18.3877 18.6573C19.8283 17.5466 20.9823 16.3744 21.8276 15.1752C23.1684 13.2728 23.6914 11.3587 23.4382 9.47103C23.3091 8.50882 23.0121 7.59154 22.5556 6.74328C21.8512 5.43462 20.8234 4.3036 19.4913 3.38376C18.5593 2.74028 17.5424 2.2277 16.469 1.86062L18.3877 18.6573ZM13.1462 1.17786L13.1461 1.17785C12.7935 1.14783 12.4307 1.13281 12.0495 1.13281C11.7979 1.13281 11.5381 1.13938 11.2675 1.15243L13.1462 1.17786ZM13.1462 1.17786C14.3205 1.27765 15.4382 1.50817 16.469 1.8606L13.1462 1.17786ZM2.10684 5.69398L2.1068 5.69403C1.48573 6.5449 1.04307 7.43995 0.785167 8.35381L0.785133 8.35393C0.520317 9.29142 0.440039 10.2854 0.549328 11.31L2.10684 5.69398ZM2.10684 5.69398C2.94646 4.5434 4.02574 3.5996 5.4203 2.80905C6.51245 2.19 7.72476 1.73096 9.02474 1.44705C9.74895 1.28891 10.5035 1.18962 11.2673 1.15244L2.10684 5.69398ZM12.1833 21.9012L12.1724 21.9069L11.2862 22.367L11.4487 21.3817L11.4708 21.2478L11.4709 21.2475C11.4778 21.2054 11.485 21.1633 11.4919 21.1221L11.4954 21.1017L11.4955 21.101C11.5493 20.7849 11.5939 20.5127 11.5855 20.2366C11.5762 19.9303 11.496 19.7004 11.3718 19.5294L11.3717 19.5293C11.2482 19.3592 11.0546 19.2105 10.7655 19.1035L10.7654 19.1035C10.4776 18.9968 10.1685 18.9399 9.84446 18.8917L9.84431 18.8916C9.19836 18.7952 8.54245 18.6392 7.89426 18.428C7.89425 18.428 7.89424 18.428 7.89422 18.428L8.04906 17.9526C6.50721 17.4506 5.2319 16.7206 4.14986 15.721C3.14496 14.7924 2.45662 13.763 2.04547 12.574L12.1833 21.9012ZM12.1833 21.9012L12.2914 21.8455C12.3574 21.8115 12.4165 21.7797 12.472 21.749M12.1833 21.9012L12.472 21.749M12.472 21.749C12.472 21.749 12.472 21.749 12.472 21.749L12.3509 21.5306M12.472 21.749L12.3509 21.5306L12.3509 21.5306M12.472 21.749C13.473 21.194 14.4727 20.5733 15.5273 19.8524C17.2644 18.6651 18.5408 17.6625 19.6544 16.605C20.5995 15.7076 21.2885 14.8852 21.8049 14.0209C22.2764 13.2322 22.5885 12.3991 22.7267 11.5449C22.8654 10.689 22.8314 9.79967 22.6311 8.90367C22.4031 7.88296 21.9416 6.9148 21.268 6.02655C20.2334 4.66212 18.8855 3.63323 17.1681 2.87857L17.168 2.87856M12.472 21.749L17.168 2.87856M12.3509 21.5306L12.2791 21.4011M12.3509 21.5306L12.1089 21.4906L12.0624 21.4011H12.2791M12.2791 21.4011H12.3986L12.4574 21.4108L12.4354 21.5445L12.2791 21.4011ZM17.168 2.87856C15.8213 2.28687 14.3498 1.94163 12.7965 1.84853L17.168 2.87856ZM1.32894 13.9398C0.907082 13.097 0.645731 12.2124 0.549336 11.3101L9.82953 20.096L9.93398 19.607C9.93395 19.607 9.93392 19.607 9.93389 19.607C9.73679 19.5649 9.5368 19.5273 9.34974 19.4921C9.04214 19.4341 8.74145 19.3773 8.44973 19.3037C7.0836 18.9591 5.81637 18.3993 4.68162 17.6409C3.94675 17.1495 3.29989 16.5999 2.75726 16.0091C2.18378 15.3845 1.70335 14.6882 1.32898 13.9399L1.32894 13.9398ZM2.57693 6.23403C1.75964 7.39031 1.29287 8.65692 1.2031 9.99435L12.7964 1.84853C12.5275 1.83237 12.2551 1.82431 11.9865 1.82431C11.203 1.82431 10.4189 1.89311 9.65562 2.02871L9.65559 2.02871C8.22666 2.28267 6.89776 2.757 5.70865 3.44134L5.70864 3.44135C4.40343 4.19254 3.37442 5.10601 2.57696 6.23399L2.57693 6.23403Z" fill="#123F6D" stroke="#123F6D"/>
<path id="Vector_2" d="M14.4996 13.3313L14.5119 13.3272C14.5491 13.3147 14.5657 13.2981 14.5739 13.2865C14.5823 13.2748 14.5944 13.2509 14.5944 13.2053C14.5948 11.7589 14.5946 10.3126 14.5942 8.86613V8.86599C14.5942 8.85238 14.594 8.84449 14.5937 8.83981C14.583 8.79637 14.562 8.77187 14.5434 8.75843C14.5239 8.74443 14.4946 8.73331 14.4514 8.73843L14.4513 8.73844C14.4281 8.74119 14.4073 8.75185 14.3898 8.77255C14.3718 8.79375 14.3556 8.82827 14.3556 8.87639L14.3556 8.87649C14.3552 9.37678 14.3553 9.87685 14.3554 10.3772C14.3555 10.6275 14.3556 10.8778 14.3556 11.1283V11.1285V11.1287V11.1289V11.1291V11.1293V11.1295V11.1298V11.13V11.1302V11.1304V11.1306V11.1308V11.131V11.1312V11.1314V11.1316V11.1318V11.132V11.1322V11.1324V11.1326V11.1328V11.133V11.1332V11.1334V11.1336V11.1339V11.1341V11.1343V11.1345V11.1347V11.1349V11.1351V11.1353V11.1355V11.1357V11.1359V11.1361V11.1363V11.1365V11.1367V11.1369V11.1371V11.1373V11.1375V11.1377V11.138V11.1382V11.1384V11.1386V11.1388V11.139V11.1392V11.1394V11.1396V11.1398V11.14V11.1402V11.1404V11.1406V11.1408V11.141V11.1412V11.1414V11.1416V11.1418V11.1421V11.1423V11.1425V11.1427V11.1429V11.1431V11.1433V11.1435V11.1437V11.1439V11.1441V11.1443V11.1445V11.1447V11.1449V11.1451V11.1453V11.1455V11.1457V11.1459V11.1462V11.1464V11.1466V11.1468V11.147V11.1472V11.1474V11.1476V11.1478V11.148V11.1482V11.1484V11.1486V11.1488V11.149V11.1492V11.1494V11.1496V11.1498V11.15V11.1503V11.1505V11.1507V11.1509V11.1511V11.1513V11.1515V11.1517V11.1519V11.1521V11.1523V11.1525V11.1527V11.1529V11.1531V11.1533V11.1535V11.1537V11.1539V11.1541V11.1544V11.1546V11.1548V11.155V11.1552V11.1554V11.1556V11.1558V11.156V11.1562V11.1564V11.1566V11.1568V11.157V11.1572V11.1574V11.1576V11.1578V11.158V11.1582V11.1585V11.1587V11.1589V11.1591V11.1593V11.1595V11.1597V11.1599V11.1601V11.1603V11.1605V11.1607V11.1609V11.1611V11.1613V11.1615V11.1617V11.1619V11.1621V11.1623V11.1625V11.1628V11.163V11.1632V11.1634V11.1636V11.1638V11.164V11.1642V11.1644V11.1646V11.1648V11.165V11.1652V11.1654V11.1656V11.1658V11.166V11.1662V11.1664V11.1666V11.1669V11.1671V11.1673V11.1675V11.1677V11.1679V11.1681V11.1683V11.1685V11.1687V11.1689V11.1691V11.1693V11.1695V11.1697V11.1699V11.1701V11.1703V11.1705V11.1707V11.171V11.1712V11.1714V11.1716V11.1718V11.172V11.1722V11.1724V11.1726V11.1728V11.173V11.1732V11.1734V11.1736V11.1738V11.174V11.1742V11.1744V11.1746V11.1748V11.1751V11.1753V11.1755V11.1757V11.1759V11.1761V11.1763V11.1765V11.1767V11.1769V11.1771V11.1773V11.1775V11.1777V11.1779V11.1781V11.1783V11.1785V11.1787V11.1789V11.1792V11.1794V11.1796V11.1798V11.18V11.1802V11.1804V11.1806V11.1808V11.181V11.1812V11.1814V11.1816V11.1818V11.182V11.1822V11.1824V11.1826V11.1828V11.183V11.1833V11.1835V11.1837V11.1839V11.1841V11.1843V11.1845V11.1847V11.1849V11.1851V11.1853V11.1855V11.1857V11.1859V11.1861V11.1863V11.1865V11.1867V11.1869V11.1871V11.1874V11.1876V11.1878V11.188V11.1882V11.1884V11.1886V11.1888V11.189V11.1892V11.1894V11.1896V11.1898V11.19V11.1902V11.1904V11.1906V11.1908V11.191V11.1912V11.1915V11.1917V11.1919V11.1921V11.1923V11.1925V11.1927V11.1929V11.1931V11.1933V11.1935V11.1937V11.1939V11.1941V11.1943V11.1945V11.1947V11.1949V11.1951V11.1953V11.1956V11.1958V11.196V11.1962V11.1964V11.1966V11.1968V11.197V11.1972V11.1974V11.1976V11.1978V11.198V11.1982V11.1984V11.1986V11.1988V11.199V11.1992V11.1994V11.1997V11.1999V11.2001V11.2003V11.2005V11.2007V11.2009V11.2011V11.2013V11.2015V11.2017V11.2019V11.2021V11.2023V11.2025V11.2027V11.2029V11.2031V11.2033V11.2035V11.2038V11.204V11.2042V11.2044V11.2046V11.2048V11.205V11.2052V11.2054V11.2056V11.2058V11.206V11.2062V11.2064V11.2066V11.2068V11.207V11.2072V11.2074V11.2076V11.2079V11.2081V11.2083V11.2085V11.2087V11.2089V11.2091V11.2093V11.2095V11.2097V11.2099V11.2101V11.2103V11.2105V11.2107V11.2109V11.2111V11.2113V11.2115V11.2117V11.212V11.2122V11.2124V11.2126V11.2128V11.213V11.2132V11.2134V11.2136V11.2138V11.214V11.2142V11.2144V11.2146V11.2148V11.215V11.2152V11.2154V11.2156V11.2158V11.2161V11.2163V11.2165V11.2167V11.2169V11.2171V11.2173V11.2175V11.2177V11.2179V11.2181V11.2183V11.2185V11.2187V11.2189V11.2191V11.2193V11.2195V11.2197V11.2199V11.2202V11.2204V11.2206V11.2208V11.221V11.2212V11.2214V11.2216V11.2218V11.222V11.2222V11.2224V11.2226V11.2228V11.223V11.2232V11.2234V11.2236V11.2238V11.224V11.2243V11.2245V11.2247V11.2249V11.2251V11.2253V11.2255V11.2257V11.2259V11.2261V11.2263V11.2265V11.2267V11.2269V11.2271V11.2273V11.2275V11.2277V11.2279V11.2281V11.2283V11.2286V11.2288V11.229V11.2292V11.2294V11.2296V11.2298V11.23V11.2302V11.2304V11.2306V11.2308V11.231V11.2312V11.2314V11.2316V11.2318V11.232V11.2322V11.2324V11.2327V11.2329V11.2331V11.2333V11.5832L14.027 11.703C14.027 11.703 14.0262 11.7033 14.0235 11.7043L14.0076 11.7102L13.6522 11.8398L13.4309 11.533L13.363 11.4384L13.3626 11.4378C13.1747 11.1744 12.9871 10.911 12.7994 10.6477C12.3609 10.0323 11.9227 9.41725 11.4833 8.80281L14.4996 13.3313ZM14.4996 13.3313C14.4695 13.3392 14.4497 13.3361 14.4378 13.3322C14.4246 13.3279 14.4016 13.3163 14.3759 13.2805C13.9496 12.6847 13.5246 12.0883 13.0992 11.4915C12.8947 11.2045 12.6901 10.9174 12.4852 10.6302L12.4851 10.6299C12.4657 10.6028 12.4431 10.5732 12.4201 10.5429C12.4114 10.5315 12.4026 10.52 12.394 10.5085L11.495 9.31881V10.81V10.939C11.495 11.1654 11.4951 11.3917 11.4951 11.6179C11.4953 12.1456 11.4954 12.6729 11.4948 13.2004L14.4996 13.3313ZM11.3393 8.74213L11.3391 8.74219C11.3012 8.7546 11.2865 8.77042 11.2792 8.78084C11.2711 8.79239 11.256 8.82123 11.256 8.8807C11.2558 10.3175 11.2558 11.754 11.2564 13.1906L11.2564 13.1908C11.2564 13.2121 11.2567 13.2235 11.2572 13.2312L11.3393 8.74213ZM11.3393 8.74213C11.3744 8.73062 11.3958 8.73412 11.409 8.73866M11.3393 8.74213L11.409 8.73866M11.4001 13.3334L11.4003 13.3334C11.4347 13.3298 11.4947 13.2916 11.4948 13.2004L11.4001 13.3334ZM11.4001 13.3334C11.3547 13.3382 11.3249 13.3264 11.3063 13.3129C11.2883 13.2999 11.2679 13.2762 11.2573 13.2329L11.4001 13.3334ZM11.409 8.73866C11.4229 8.74344 11.451 8.75762 11.4833 8.80272L11.409 8.73866Z" fill="#123F6D" stroke="#123F6D"/>
<path id="Vector_3" d="M16.3492 13.8313C17.1661 13.8319 17.9829 13.8317 18.7996 13.8309C18.8477 13.8309 18.8969 13.8288 18.9434 13.8181C19.2637 13.7448 19.4647 13.4626 19.4321 13.1363C19.4009 12.8259 19.1334 12.5901 18.8076 12.5896C18.2264 12.5884 17.6453 12.5892 17.0641 12.5892C17.0298 12.5892 16.9955 12.5892 16.9612 12.5892V11.637C17.0032 11.637 17.0385 11.637 17.0736 11.637C17.6451 11.637 18.2165 11.637 18.788 11.6368C18.8331 11.6368 18.8791 11.638 18.9231 11.6298C19.2487 11.5684 19.4637 11.2773 19.4321 10.9441C19.4027 10.6339 19.1344 10.396 18.8095 10.3953C18.2283 10.3941 17.6472 10.3949 17.066 10.3949C17.0315 10.3949 16.997 10.3949 16.9585 10.3949V9.481H17.0717C17.6431 9.481 18.2146 9.4812 18.786 9.48042C18.8374 9.48042 18.8901 9.47964 18.9398 9.46857C19.2631 9.39646 19.4695 9.1055 19.4315 8.77976C19.3953 8.46898 19.1291 8.23906 18.8012 8.23886C17.9843 8.23809 17.1674 8.23809 16.3508 8.23886C15.9807 8.23925 15.7153 8.50436 15.7151 8.87344C15.7147 10.3138 15.7147 11.7542 15.7151 13.1946C15.7151 13.5639 15.9815 13.8311 16.349 13.8313H16.3492Z" fill="#123F6D"/>
<path id="Vector_4" d="M7.64425 12.5892C7.06659 12.588 6.48893 12.5888 5.91127 12.5888C5.87638 12.5888 5.84129 12.5888 5.79399 12.5888V12.4599C5.79399 11.2629 5.79438 10.0656 5.7938 8.86858C5.7936 8.50999 5.52454 8.23809 5.17349 8.23828C4.82321 8.23828 4.55532 8.51097 4.55512 8.87033C4.55454 10.3134 4.55454 11.7563 4.55512 13.1995C4.55512 13.5619 4.82321 13.8305 5.18415 13.8309C6.00393 13.8317 6.8235 13.8315 7.64328 13.8309C8.00053 13.8307 8.27347 13.5606 8.27366 13.2101C8.27366 12.8587 8.00267 12.5898 7.64425 12.5892Z" fill="#123F6D"/>
<path id="Vector_5" d="M10.1336 8.86936C10.1332 8.51038 9.86469 8.23809 9.51403 8.23828C9.16316 8.23828 8.89508 8.51038 8.89488 8.86956C8.8943 10.3127 8.89449 11.756 8.89508 13.1991C8.89508 13.244 8.89682 13.2902 8.90651 13.3338C8.97843 13.6597 9.26241 13.8638 9.59156 13.8288C9.89958 13.7961 10.1332 13.5258 10.1336 13.1989C10.1343 12.4772 10.1337 11.7558 10.1337 11.0341C10.1337 10.3125 10.1343 9.59101 10.1336 8.86936Z" fill="#123F6D"/>
</g>
</svg>
