<svg width="24" height="24" viewBox="0 0 24 24" fill="none" xmlns="http://www.w3.org/2000/svg">
<g id="Telephone" clip-path="url(#clip0_12158_37415)">
<path id="Vector" d="M5.47975 1.99244C5.3912 1.87853 5.27943 1.78477 5.15186 1.71738C5.02428 1.64999 4.88383 1.61051 4.73983 1.60158C4.59583 1.59264 4.45157 1.61444 4.31665 1.66554C4.18172 1.71664 4.05921 1.79586 3.95725 1.89794L2.40625 3.45044C1.68175 4.17644 1.41475 5.20394 1.73125 6.10544C3.04486 9.83683 5.1817 13.2246 7.98325 16.0174C10.7761 18.819 14.1639 20.9558 17.8953 22.2694C18.7968 22.5859 19.8243 22.3189 20.5503 21.5944L22.1013 20.0434C22.2033 19.9415 22.2826 19.819 22.3337 19.684C22.3848 19.5491 22.4066 19.4049 22.3976 19.2609C22.3887 19.1169 22.3492 18.9764 22.2818 18.8488C22.2144 18.7213 22.1207 18.6095 22.0068 18.5209L18.5463 15.8299C18.4246 15.7356 18.283 15.67 18.1323 15.6383C17.9816 15.6066 17.8257 15.6096 17.6763 15.6469L14.3913 16.4674C13.9528 16.577 13.4934 16.5712 13.0578 16.4506C12.6223 16.3299 12.2254 16.0985 11.9058 15.7789L8.22175 12.0934C7.90191 11.774 7.67024 11.3772 7.54932 10.9416C7.4284 10.506 7.42235 10.0466 7.53175 9.60794L8.35375 6.32294C8.39111 6.17354 8.39406 6.0176 8.36235 5.86689C8.33065 5.71618 8.26514 5.57464 8.17075 5.45294L5.47975 1.99244ZM2.82475 0.766943C3.08725 0.504367 3.4026 0.300638 3.74986 0.169284C4.09713 0.0379306 4.46837 -0.0180424 4.83893 0.00508205C5.20948 0.0282065 5.57088 0.129899 5.89913 0.303408C6.22737 0.476916 6.51494 0.71827 6.74275 1.01144L9.43375 4.47044C9.92725 5.10494 10.1013 5.93144 9.90625 6.71144L9.08575 9.99644C9.04333 10.1666 9.04562 10.3448 9.09241 10.5138C9.13919 10.6828 9.22887 10.8368 9.35275 10.9609L13.0383 14.6464C13.1625 14.7706 13.3168 14.8604 13.4861 14.9072C13.6554 14.954 13.8339 14.9561 14.0043 14.9134L17.2878 14.0929C17.6727 13.9967 18.0744 13.9892 18.4627 14.0711C18.8509 14.1529 19.2155 14.322 19.5288 14.5654L22.9878 17.2564C24.2313 18.2239 24.3453 20.0614 23.2323 21.1729L21.6813 22.7239C20.5713 23.8339 18.9123 24.3214 17.3658 23.7769C13.4075 22.3842 9.81366 20.1182 6.85075 17.1469C3.87969 14.1845 1.61367 10.5911 0.220753 6.63344C-0.322247 5.08844 0.165253 3.42794 1.27525 2.31794L2.82625 0.766943H2.82475Z" fill="white"/>
</g>
<defs>
<clipPath id="clip0_12158_37415">
<rect width="24" height="24" fill="white"/>
</clipPath>
</defs>
</svg>
