<svg width="20" height="24" viewBox="0 0 20 24" fill="none" xmlns="http://www.w3.org/2000/svg">
<g id="Group">
<path id="Vector" d="M10 13.125C11.864 13.125 13.375 11.614 13.375 9.75C13.375 7.88604 11.864 6.375 10 6.375C8.13604 6.375 6.625 7.88604 6.625 9.75C6.625 11.614 8.13604 13.125 10 13.125Z" stroke="#123F6D" stroke-width="1.6" stroke-linecap="round" stroke-linejoin="round"/>
<path id="Vector_2" d="M10 0.75C7.61305 0.75 5.32387 1.69821 3.63604 3.38604C1.94821 5.07387 1 7.36305 1 9.75C1 11.8785 1.45225 13.2712 2.6875 14.8125L10 23.25L17.3125 14.8125C18.5478 13.2712 19 11.8785 19 9.75C19 7.36305 18.0518 5.07387 16.364 3.38604C14.6761 1.69821 12.3869 0.75 10 0.75V0.75Z" stroke="#123F6D" stroke-width="1.6" stroke-linecap="round" stroke-linejoin="round"/>
</g>
</svg>
