<svg width="20" height="20" viewBox="0 0 20 20" fill="none" xmlns="http://www.w3.org/2000/svg">
<g id="cil:bathroom">
<path id="Vector" d="M17.5833 10.8945H3.58333V4.34829C3.58266 4.10176 3.63101 3.85755 3.72559 3.62979C3.82016 3.40203 3.95909 3.19524 4.13433 3.0214L4.14891 3.00685C4.42354 2.73331 4.77613 2.55101 5.15852 2.48486C5.54091 2.41872 5.93445 2.47195 6.28537 2.63728C5.95395 3.18694 5.8162 3.83133 5.894 4.46804C5.9718 5.10475 6.2607 5.69726 6.71478 6.15141L7.11403 6.54967L6.37914 7.28278L7.20405 8.10564L7.93894 7.37257L12.0109 3.31074L12.7458 2.57767L11.9209 1.75478L11.186 2.48785L10.7867 2.08958C10.3087 1.61408 9.67856 1.32096 9.00614 1.26131C8.33372 1.20166 7.66163 1.37925 7.10699 1.76314C6.52214 1.3947 5.82905 1.23564 5.14158 1.3121C4.45412 1.38855 3.81316 1.69597 3.32401 2.18385L3.30942 2.19839C3.0255 2.48006 2.8004 2.81511 2.64716 3.18414C2.49392 3.55317 2.41558 3.94885 2.41667 4.34829V10.8945H1.25V12.0583H2.41667V13.1748C2.41664 13.2686 2.43181 13.3618 2.46158 13.4508L3.54688 16.6984C3.60479 16.8723 3.71616 17.0236 3.86516 17.1307C4.01416 17.2378 4.19321 17.2954 4.37689 17.2953H4.8472L4.42188 18.75H5.63714L6.0625 17.2953H13.6495L14.087 18.75H15.3047L14.8672 17.2953H15.623C15.8067 17.2955 15.9858 17.2379 16.1348 17.1308C16.2838 17.0236 16.3952 16.8723 16.4531 16.6984L17.5383 13.4508C17.5681 13.3618 17.5833 13.2686 17.5833 13.1748V12.0583H18.75V10.8945H17.5833ZM7.53979 2.91248C7.86121 2.59256 8.29672 2.41289 8.75077 2.41289C9.20483 2.41289 9.64034 2.59256 9.96175 2.91248L10.3609 3.31074L7.93905 5.72663L7.53979 5.32844C7.21909 5.00781 7.03899 4.57338 7.03899 4.12046C7.03899 3.66753 7.21909 3.23311 7.53979 2.91248ZM16.4167 13.1275L15.4129 16.1315H4.5871L3.58333 13.1275V12.0583H16.4167V13.1275Z" fill="#545E67"/>
</g>
</svg>
