<svg width="20" height="20" viewBox="0 0 20 20" fill="none" xmlns="http://www.w3.org/2000/svg">
<g id="gis:measure-area">
<path id="gisMeasureArea0" fill-rule="evenodd" clip-rule="evenodd" d="M7.0204 0C5.7688 0 4.7434 1.027 4.7434 2.2786C4.7434 2.869 4.9776 3.4046 5.3504 3.811L3.4808 7.584C3.4132 7.5778 3.3478 7.5636 3.2786 7.5636C2.027 7.5636 1 8.589 1 9.8406C1 11.0922 2.027 12.1192 3.2786 12.1192C4.0706 12.1192 4.7706 11.7064 5.1792 11.0872L14.5132 12.4344C14.7558 13.431 15.6538 14.1812 16.7214 14.1812C17.973 14.1812 19 13.156 19 11.9042C19 10.6918 18.034 9.6966 16.836 9.6352L15.6094 5.8086C16.1342 5.39 16.4796 4.7534 16.4796 4.0352C16.4796 2.7836 15.4528 1.7562 14.2012 1.7562C13.4082 1.7562 12.7076 2.1692 12.2988 2.7898L9.2676 1.962C9.1106 0.8596 8.1636 0 7.0204 0ZM7.0204 1.1542C7.6484 1.1542 8.1464 1.6506 8.1464 2.2786C8.1464 2.9066 7.6484 3.4032 7.0204 3.4032C6.3924 3.4032 5.8976 2.9064 5.8976 2.2786C5.8976 1.6506 6.3924 1.1542 7.0204 1.1542ZM14.2012 2.9106C14.8292 2.9106 15.3242 3.4072 15.3242 4.0352C15.3242 4.6632 14.8292 5.1592 14.2012 5.1592C13.5732 5.1592 13.0754 4.6632 13.0754 4.0352C13.0754 3.4072 13.5734 2.9106 14.2012 2.9106ZM8.9696 3.4374L11.943 4.2514C12.054 5.3994 13.019 6.3082 14.1934 6.3122L15.393 10.0632C15.083 10.2884 14.8388 10.5908 14.6718 10.9382L5.5336 9.6196C5.4782 9.0676 5.2328 8.57 4.8516 8.2036L6.6738 4.5226C6.7878 4.5406 6.9014 4.5574 7.0204 4.5574C7.8482 4.5574 8.5702 4.1042 8.9696 3.4374ZM3.2786 8.716C3.9066 8.716 4.4046 9.2126 4.4046 9.8406C4.40561 9.98874 4.37717 10.1356 4.32094 10.2727C4.26471 10.4097 4.18181 10.5342 4.07704 10.639C3.97228 10.7437 3.84775 10.8266 3.71068 10.8828C3.57361 10.939 3.42674 10.9674 3.2786 10.9664C2.6506 10.9664 2.1542 10.4684 2.1542 9.8406C2.153 9.6926 2.18126 9.54584 2.23734 9.40887C2.29342 9.2719 2.3762 9.14745 2.48084 9.04279C2.58549 8.93812 2.70992 8.85532 2.84688 8.79922C2.98384 8.74312 3.1306 8.71483 3.2786 8.716ZM16.7214 10.7786C17.3494 10.7786 17.8458 11.2764 17.8458 11.9042C17.8458 12.5322 17.3494 13.0258 16.7214 13.0258C16.0934 13.0258 15.5954 12.5322 15.5954 11.9042C15.5944 11.7561 15.6229 11.6092 15.6791 11.4722C15.7354 11.3352 15.8183 11.2107 15.923 11.1059C16.0278 11.0012 16.1523 10.9184 16.2894 10.8622C16.4264 10.806 16.5733 10.7776 16.7214 10.7786ZM1 15.2V20H19V15.2H17.746V18.7792H16.2086V16.2348H14.9546V18.7792H13.4184V16.2348H12.1648V18.7792H10.6268V15.2H9.373V18.7792H7.835V16.2348H6.5816V18.7792H5.0454V16.2348H3.7914V18.7792H2.254V15.2H1Z" fill="#545E67"/>
</g>
</svg>
