<svg width="16" height="16" viewBox="0 0 16 16" fill="none" xmlns="http://www.w3.org/2000/svg">
<path d="M8.00033 8.48503C8.80574 8.48503 9.45866 7.83211 9.45866 7.02669C9.45866 6.22128 8.80574 5.56836 8.00033 5.56836C7.19491 5.56836 6.54199 6.22128 6.54199 7.02669C6.54199 7.83211 7.19491 8.48503 8.00033 8.48503Z" stroke="#202831" stroke-linecap="round" stroke-linejoin="round"/>
<path d="M12.375 7.02734C12.375 10.4301 8 13.3468 8 13.3468C8 13.3468 3.625 10.4301 3.625 7.02734C3.625 5.86702 4.08594 4.75422 4.90641 3.93375C5.72688 3.11328 6.83968 2.65234 8 2.65234C9.16032 2.65234 10.2731 3.11328 11.0936 3.93375C11.9141 4.75422 12.375 5.86702 12.375 7.02734Z" stroke="#202831" stroke-linecap="round" stroke-linejoin="round"/>
</svg>
