<svg width="32" height="32" viewBox="0 0 32 32" fill="none" xmlns="http://www.w3.org/2000/svg">
<g id="Group 920">
<g id="Group">
<path id="Vector" d="M9.90825 21.8322H12.3602C12.584 21.8322 12.7986 21.7433 12.9568 21.5851C13.115 21.4268 13.2039 21.2122 13.2039 20.9885C13.2039 20.7647 13.115 20.5501 12.9568 20.3918C12.7986 20.2336 12.584 20.1447 12.3602 20.1447H8.42831C8.20454 20.1447 7.98992 20.2336 7.83169 20.3918C7.67346 20.5501 7.58456 20.7647 7.58456 20.9885V24.917C7.58456 25.1407 7.67346 25.3553 7.83169 25.5136C7.98992 25.6718 8.20454 25.7607 8.42831 25.7607C8.65209 25.7607 8.8667 25.6718 9.02493 25.5136C9.18317 25.3553 9.27206 25.1407 9.27206 24.917V23.5838C10.72 24.9145 12.5241 25.7947 14.464 26.117C16.4039 26.4393 18.3957 26.1897 20.1961 25.3986C21.9965 24.6076 23.5276 23.3094 24.6023 21.6626C25.6771 20.0158 26.2491 18.0916 26.2483 16.1251C26.2483 13.4401 25.1818 10.865 23.2834 8.96622C21.3849 7.06747 18.81 6.00053 16.125 6.00008C13.4397 6.00008 10.8643 7.06682 8.96554 8.96563C7.06674 10.8644 6 13.4398 6 16.1251H7.6875C7.6875 13.8873 8.57645 11.7412 10.1588 10.1589C11.7411 8.57653 13.8872 7.68758 16.125 7.68758C18.3628 7.68758 20.5089 8.57653 22.0912 10.1589C23.6736 11.7412 24.5625 13.8873 24.5625 16.1251C24.5626 17.8246 24.0495 19.4845 23.0904 20.8874C22.1313 22.2904 20.7709 23.3711 19.1873 23.9879C17.6037 24.6047 15.8707 24.7289 14.2154 24.3442C12.56 23.9596 11.0593 23.084 9.90994 21.8322H9.90825Z" fill="#F1683B"/>
</g>
</g>
</svg>
